<?xml version="1.0" standalone="no"?>
<!DOCTYPE svg PUBLIC "-//W3C//DTD SVG 20010904//EN"
 "http://www.w3.org/TR/2001/REC-SVG-20010904/DTD/svg10.dtd">
<svg version="1.0" xmlns="http://www.w3.org/2000/svg"
 width="800.000000pt" height="800.000000pt" viewBox="0 0 800.000000 800.000000"
 preserveAspectRatio="xMidYMid meet">

<g transform="translate(0.000000,800.000000) scale(0.100000,-0.100000)"
fill="#000000" stroke="none">
<path d="M3687 7040 c-64 -4 -119 -9 -122 -12 -3 -2 -16 -83 -30 -179 -14 -96
-26 -181 -28 -189 -1 -8 5 -15 13 -15 11 0 18 21 27 80 6 44 12 80 12 81 1 1
47 4 103 8 56 3 104 8 106 11 14 14 -17 19 -93 15 -48 -3 -92 -2 -97 1 -10 6
-3 124 9 156 4 9 27 13 77 14 91 1 161 11 159 24 -2 13 -1 13 -136 5z"/>
<path d="M4055 6931 c-6 -5 -28 -14 -49 -21 -35 -11 -41 -11 -53 5 -7 10 -16
15 -20 11 -8 -7 -74 -230 -77 -256 0 -8 4 -17 9 -18 6 -2 23 38 38 90 34 112
67 151 124 146 25 -2 39 2 47 14 12 20 -4 44 -19 29z"/>
<path d="M4190 6881 c0 -6 -8 -11 -19 -11 -26 0 -72 -39 -70 -59 1 -9 -3 -35
-10 -59 -17 -60 7 -108 69 -139 55 -28 89 -29 139 -3 67 34 112 115 97 176
-11 41 -60 81 -109 89 -23 3 -54 8 -69 11 -17 3 -28 1 -28 -5z m135 -43 c59
-27 57 -119 -5 -180 -34 -34 -43 -38 -89 -38 -110 0 -152 103 -74 184 21 21
47 42 58 47 22 9 75 3 110 -13z"/>
<path d="M2912 6764 c-27 -32 -32 -34 -50 -23 -12 7 -23 11 -25 9 -5 -6 50
-280 58 -288 7 -8 25 19 20 29 -3 3 -11 44 -19 91 -19 108 -10 148 39 178 36
22 45 40 21 40 -8 0 -28 -16 -44 -36z"/>
<path d="M4487 6686 c-48 -63 -87 -117 -87 -120 0 -3 6 -6 13 -6 7 0 34 28 59
63 79 106 109 124 183 107 45 -10 75 -41 75 -75 0 -13 -27 -60 -61 -105 -38
-52 -57 -86 -51 -92 6 -6 29 17 62 61 28 39 63 80 77 91 46 36 160 19 177 -25
13 -34 4 -56 -55 -135 -71 -96 -68 -134 3 -43 95 121 107 161 63 206 -29 29
-95 47 -142 40 -29 -5 -33 -2 -47 30 -17 42 -61 68 -117 69 -33 0 -42 5 -49
24 -5 13 -11 24 -13 24 -2 0 -42 -51 -90 -114z"/>
<path d="M2616 6640 c-34 -11 -73 -45 -92 -82 -35 -68 -1 -175 68 -212 32 -18
40 -18 77 -7 47 13 126 85 115 103 -5 7 -14 1 -27 -16 -24 -33 -86 -66 -125
-66 -30 0 -72 35 -72 61 0 8 45 40 100 73 55 32 103 62 105 67 10 15 -28 61
-62 75 -36 16 -46 16 -87 4z m96 -37 c34 -30 22 -48 -69 -101 -64 -37 -91 -48
-100 -40 -29 24 -6 99 43 137 33 26 100 28 126 4z"/>
<path d="M2280 6413 c-17 -16 -38 -44 -48 -63 -13 -27 -22 -34 -39 -32 -13 2
-23 1 -23 -1 0 -4 189 -347 196 -356 1 -1 8 0 13 4 7 4 -1 28 -24 69 -46 83
-46 96 5 96 32 0 47 7 79 38 64 61 72 131 25 210 -39 66 -130 83 -184 35z
m131 -13 c24 -13 59 -81 59 -115 0 -71 -61 -135 -128 -135 -41 0 -87 44 -101
95 -22 82 33 165 110 165 22 0 49 -5 60 -10z"/>
<path d="M5225 6371 c-52 -23 -112 -91 -120 -135 -9 -47 10 -100 53 -148 38
-42 98 -78 132 -78 30 0 24 18 -9 25 -71 15 -151 106 -151 170 0 51 43 106
107 139 39 20 122 21 166 2 47 -19 95 -71 107 -117 6 -21 15 -39 20 -39 18 0
20 20 5 57 -48 115 -199 175 -310 124z"/>
<path d="M1985 6117 c-29 -28 -46 -55 -50 -80 -12 -62 2 -107 50 -154 35 -36
49 -43 81 -43 65 0 123 51 143 126 25 95 -48 194 -143 194 -32 0 -46 -7 -81
-43z m149 -8 c84 -66 69 -192 -28 -234 -39 -17 -77 -3 -116 41 -26 30 -30 43
-30 90 0 50 3 59 34 90 41 41 97 47 140 13z"/>
<path d="M5435 6020 c-77 -38 -98 -121 -49 -192 28 -41 94 -78 138 -78 34 0
94 31 126 65 54 58 16 165 -74 206 -53 24 -91 24 -141 -1z m146 -25 c36 -19
69 -70 69 -106 0 -79 -132 -139 -200 -92 -59 41 -80 94 -60 144 25 58 126 87
191 54z"/>
<path d="M1716 5971 c-5 -8 285 -291 298 -291 24 0 -13 45 -138 163 -79 75
-147 137 -150 137 -2 0 -7 -4 -10 -9z"/>
<path d="M5646 5686 c-66 -17 -121 -37 -124 -44 -5 -17 18 -15 111 9 123 31
181 12 207 -67 23 -67 -4 -94 -130 -128 -45 -12 -80 -26 -78 -31 5 -15 45 -10
127 15 79 23 121 55 121 91 0 36 -41 110 -67 122 -20 9 -24 16 -19 39 7 35 6
35 -148 -6z"/>
<path d="M1698 5683 c-48 -51 -62 -127 -33 -182 29 -57 113 -109 158 -97 60
15 116 94 117 164 0 46 -16 40 -24 -9 -9 -58 -31 -96 -66 -114 -36 -19 -61
-19 -86 -1 -18 14 -17 18 36 126 53 108 54 112 36 126 -11 8 -41 14 -66 14
-37 0 -51 -5 -72 -27z m106 1 c9 -3 16 -15 16 -25 0 -22 -74 -174 -89 -183
-15 -10 -50 34 -57 71 -16 87 57 165 130 137z"/>
<path d="M1576 5428 c4 -7 47 -59 96 -115 48 -56 88 -106 88 -112 0 -17 -32
-20 -140 -12 -96 7 -134 2 -117 -15 3 -4 68 -11 144 -15 138 -9 153 -6 153 26
0 14 -209 255 -221 255 -6 0 -7 -6 -3 -12z"/>
<path d="M5790 5350 c-50 -12 -90 -60 -90 -110 0 -51 20 -98 54 -129 38 -35
44 -18 8 23 -78 89 -37 190 77 190 105 -1 161 -79 130 -183 -9 -30 20 -20 30
11 12 35 5 71 -23 125 -29 57 -113 90 -186 73z"/>
<path d="M1509 5045 c-58 -31 -76 -130 -36 -199 25 -45 93 -86 141 -86 89 0
148 102 120 208 -12 42 -21 22 -20 -41 1 -94 -30 -137 -99 -137 -30 0 -31 14
-10 155 11 78 12 101 2 107 -19 12 -69 9 -98 -7z m85 -23 c3 -5 -1 -51 -9
-103 -8 -52 -15 -97 -15 -101 0 -19 -39 -5 -66 23 -25 26 -29 38 -29 86 0 48
4 58 28 79 27 23 81 33 91 16z"/>
<path d="M5805 4997 c-31 -31 -35 -41 -35 -86 0 -32 8 -67 20 -92 27 -53 44
-41 20 14 -23 51 -25 88 -5 126 15 31 33 41 70 41 20 0 23 -6 29 -52 3 -29 11
-86 18 -127 l11 -73 36 6 c44 7 87 52 97 100 5 27 0 47 -17 83 -33 66 -66 86
-144 91 -63 4 -66 3 -100 -31z m201 -31 c30 -30 34 -40 34 -85 0 -42 -5 -57
-25 -77 -15 -15 -34 -24 -47 -22 -25 3 -32 28 -43 146 l-7 72 27 0 c17 0 39
-12 61 -34z"/>
<path d="M5682 4698 c3 -7 37 -22 76 -33 39 -11 74 -23 78 -28 4 -4 -2 -17
-14 -30 -34 -36 -45 -79 -32 -126 21 -80 88 -131 171 -131 33 0 47 6 74 33 43
43 53 94 31 150 -15 39 -15 43 1 55 10 7 13 15 7 21 -7 7 -368 101 -389 101
-4 0 -5 -6 -3 -12z m308 -93 c39 -20 60 -63 60 -120 0 -89 -79 -130 -167 -88
-53 25 -75 66 -70 132 3 41 9 59 27 73 28 23 109 24 150 3z"/>
<path d="M1408 4685 c-14 -8 -37 -32 -50 -52 -21 -35 -23 -48 -22 -151 1 -62
5 -116 8 -119 3 -4 79 -17 169 -29 89 -13 174 -26 190 -28 l27 -5 0 82 c0 208
-81 318 -235 317 -33 -1 -72 -7 -87 -15z m164 -27 c48 -14 103 -74 117 -125
12 -46 18 -179 9 -189 -10 -9 -310 35 -325 48 -19 16 -17 181 2 218 29 55 108
75 197 48z"/>
<path d="M5762 4253 c-16 -32 -21 -68 -12 -83 8 -13 10 -13 14 0 3 8 6 26 8
40 5 39 56 38 153 -4 l80 -34 -2 -46 c-3 -54 12 -62 22 -10 6 35 7 36 41 30
45 -9 47 15 3 31 -27 10 -30 16 -25 37 7 30 -10 45 -19 16 -8 -27 -21 -25
-110 10 -87 34 -140 39 -153 13z"/>
<path d="M1716 4020 c-31 -38 -62 -70 -67 -70 -6 0 -37 18 -69 40 -32 22 -64
40 -71 40 -22 0 12 -29 102 -86 133 -84 128 -92 -68 -115 -95 -10 -118 -19
-94 -34 10 -6 400 40 408 49 14 13 -11 24 -47 19 -33 -5 -47 -1 -80 22 -22 15
-40 36 -40 46 0 9 22 44 50 76 46 54 61 83 42 83 -4 0 -34 -31 -66 -70z"/>
<path d="M5668 3898 c-16 -12 -38 -58 -38 -79 0 -20 19 -7 28 20 11 32 39 46
68 34 11 -5 52 -28 92 -53 59 -36 72 -49 68 -65 -17 -67 -18 -75 -8 -75 6 0
13 14 17 31 7 30 9 31 46 25 45 -7 50 4 13 29 -21 13 -24 21 -19 46 7 30 -8
41 -19 14 -9 -24 -31 -18 -105 30 -78 51 -118 63 -143 43z"/>
<path d="M1850 3750 c0 -6 11 -15 25 -20 31 -12 65 -65 65 -102 0 -58 -30 -89
-108 -113 -34 -10 -87 12 -122 51 -25 29 -30 43 -30 85 0 36 -4 49 -12 47 -18
-6 -22 -46 -9 -88 23 -78 122 -140 191 -120 111 32 145 114 88 208 -29 48 -88
83 -88 52z"/>
<path d="M5563 3668 c-51 -53 -68 -129 -42 -181 29 -56 96 -107 141 -107 37 0
86 36 108 81 58 113 -12 239 -132 239 -37 0 -49 -5 -75 -32z m151 -19 c69 -54
74 -149 12 -206 -42 -39 -74 -42 -124 -11 -72 44 -89 145 -35 209 21 25 32 29
73 29 33 0 55 -6 74 -21z"/>
<path d="M1925 3414 c-110 -55 -149 -90 -86 -78 l31 7 0 -46 c0 -38 6 -53 32
-83 58 -65 120 -79 196 -43 111 54 108 192 -5 239 -15 6 -23 18 -23 35 0 36
-18 32 -145 -31z m169 -23 c38 -26 55 -57 56 -103 0 -42 -19 -66 -71 -94 -83
-43 -189 18 -189 109 0 44 17 69 65 95 32 18 107 14 139 -7z"/>
<path d="M5286 3250 c-37 -11 -102 -74 -127 -122 -21 -41 -25 -78 -9 -78 11 0
14 7 24 52 15 68 115 136 182 123 42 -7 102 -59 120 -102 18 -42 18 -125 0
-166 -17 -41 -88 -104 -128 -112 -34 -8 -32 -31 3 -27 40 4 102 55 137 112 55
92 40 202 -38 278 -48 46 -103 60 -164 42z"/>
<path d="M2289 3176 c39 -41 26 -64 -72 -130 l-87 -60 -28 27 c-38 37 -64 36
-29 -1 33 -34 34 -45 5 -65 -28 -18 -15 -36 12 -19 25 15 53 15 68 0 16 -16
28 -2 13 16 -17 20 -10 29 62 77 115 78 131 106 82 154 -31 32 -56 33 -26 1z"/>
<path d="M2389 3005 c-14 -7 -31 -26 -37 -41 -14 -30 -6 -52 57 -151 40 -62
37 -94 -11 -119 -26 -13 -38 -14 -69 -5 -34 10 -119 83 -119 102 0 5 -4 9 -10
9 -36 0 14 -70 79 -111 63 -40 122 -40 162 0 16 16 29 40 29 54 0 13 -20 55
-45 93 -72 111 -57 162 42 151 53 -6 108 -46 136 -100 18 -35 37 -49 37 -27 0
41 -64 109 -130 139 -53 24 -85 26 -121 6z"/>
<path d="M4959 2977 c-49 -32 -82 -101 -74 -152 4 -22 9 -55 12 -72 3 -20 11
-33 20 -33 8 0 26 -9 40 -20 32 -25 63 -25 111 -1 46 23 67 46 87 94 20 49 19
82 -6 134 -35 73 -121 96 -190 50z m107 -7 c16 -6 38 -23 48 -37 26 -36 32
-111 12 -150 -19 -38 -73 -73 -111 -73 -29 0 -65 25 -65 44 0 7 -9 19 -20 29
-14 12 -20 29 -20 57 0 76 41 123 121 139 3 0 19 -4 35 -9z"/>
<path d="M4678 2804 c-26 -13 -55 -36 -64 -50 -14 -20 -22 -24 -45 -19 -16 4
-29 5 -29 2 0 -10 102 -402 106 -406 2 -3 8 0 14 5 5 5 1 36 -11 79 -10 38
-19 75 -19 81 0 7 21 11 58 10 50 -1 64 3 95 27 73 55 95 142 57 218 -21 39
-71 79 -100 78 -8 0 -36 -11 -62 -25z m92 -34 c0 -6 11 -28 25 -50 50 -79 26
-153 -60 -186 -61 -23 -100 -7 -126 50 -32 71 -19 131 37 175 28 22 124 31
124 11z"/>
<path d="M2755 2611 c-126 -168 -137 -185 -112 -179 12 3 257 320 257 333 0 3
-6 5 -13 5 -6 0 -66 -72 -132 -159z"/>
<path d="M2912 2550 c-113 -175 -121 -190 -101 -189 8 0 61 74 119 165 117
185 117 184 98 184 -7 0 -59 -72 -116 -160z"/>
<path d="M4296 2655 c-41 -15 -84 -50 -74 -61 4 -3 21 4 39 17 20 14 52 24 85
27 46 4 56 1 78 -21 28 -28 33 -51 14 -64 -7 -4 -60 -22 -118 -38 -104 -31
-105 -31 -103 -61 3 -40 62 -94 103 -94 35 0 97 29 122 57 68 75 53 205 -27
239 -42 17 -69 17 -119 -1z m157 -164 c-4 -84 -137 -138 -190 -76 -24 27 -29
50 -14 59 16 10 186 55 196 52 6 -2 9 -18 8 -35z"/>
<path d="M3090 2534 c-33 -69 -60 -128 -60 -130 0 -2 6 -4 13 -4 7 0 33 41 57
91 24 49 52 97 64 105 28 19 125 19 154 -2 34 -23 28 -72 -18 -164 -45 -90
-46 -93 -25 -88 20 4 95 164 95 203 0 65 -62 103 -146 90 -36 -5 -44 -3 -44 9
0 9 -7 16 -15 16 -9 0 -38 -49 -75 -126z"/>
<path d="M3944 2575 c-4 -9 -2 -21 4 -27 15 -15 44 -1 40 19 -4 23 -36 29 -44
8z"/>
<path d="M3717 2573 c-3 -4 -13 -37 -22 -73 -10 -36 -22 -71 -28 -77 -7 -10
-35 -11 -108 -6 -65 4 -99 2 -99 -4 0 -12 70 -23 141 -23 29 0 49 -5 52 -12 4
-15 -20 -113 -35 -141 -9 -17 -19 -18 -124 -11 -77 4 -114 3 -114 -4 0 -12 40
-19 167 -28 83 -5 92 -4 97 13 49 165 95 358 88 365 -5 5 -12 6 -15 1z"/>
</g>
</svg>
