<?xml version="1.0" encoding="UTF-8"?>
<svg version="1.1" viewBox="0 0 1600 1600" xmlns="http://www.w3.org/2000/svg">
<path transform="translate(964,206)" d="m0 0c4.23 0.734 8.19 1.94 12.2 3.31 1.24 0.409 2.49 0.817 3.77 1.24 2.98 1.45 2.98 1.45 4 3.38-0.0199 3.51-1.5 5.93-3.01 9.07 0.583-0.24 1.17-0.48 1.77-0.727 8.41-3.04 15.2-2.31 23.5 1.03 9.91 4.74 15.7 9.26 19.8 19.7 0.375 1.66 0.722 3.32 1 5 0.846-0.495 1.69-0.99 2.56-1.5 8.42-3.54 18.2-2.34 26.5 0.812 2 0.856 3.98 1.75 5.94 2.69 1.05 0.461 2.09 0.923 3.17 1.4 3.01 1.71 4.22 3 6.02 5.91 0.468 0.739 0.936 1.48 1.42 2.24 0.46 0.808 0.92 1.62 1.39 2.45 0.538 0.944 1.08 1.89 1.63 2.86 3.96 9.07 1.92 18.6-1.35 27.5-4.59 11.6-10.2 22.7-16.3 33.6-0.933 1.68-1.86 3.36-2.8 5.04-0.734 1.32-1.47 2.64-2.2 3.96-7.18-2.27-14.1-5.04-21-8 1.29-4.15 2.85-7.87 4.9-11.7 0.562-1.06 1.12-2.13 1.7-3.22 1.17-2.2 2.35-4.4 3.52-6.6 5.75-10.9 11-20.9 9.88-33.5-2.03-5.02-5.34-6.67-10-9-4.71-0.781-9.05-0.959-13.4 1.19-9.1 7.19-13.7 19.1-18 29.6-0.593 1.44-0.593 1.44-1.2 2.9-0.764 1.88-1.51 3.77-2.23 5.67-0.344 0.858-0.687 1.72-1.04 2.6-0.294 0.766-0.587 1.53-0.89 2.32-1.25 1.77-1.25 1.77-3.62 2.62-2.81 0.165-4.28-0.167-6.84-1.28-1.13-0.479-1.13-0.479-2.28-0.967-0.769-0.342-1.54-0.684-2.33-1.04-0.788-0.338-1.58-0.677-2.39-1.03-1.94-0.834-3.87-1.68-5.8-2.54 0.554-4.82 1.99-8.35 4.25-12.6 2.79-5.38 5.23-10.8 7.49-16.4 1.35-3.14 2.91-6.11 4.51-9.13 2.48-4.9 4.23-9.25 3.75-14.8-1.62-4.76-3.88-7.19-8-10l-1.81-1.25c-4.74-1.62-9.41-1.36-14 0.477-6.11 3.21-8.32 9.56-11.2 15.5-0.605 1.22-1.21 2.45-1.82 3.67-1.2 2.41-2.38 4.83-3.56 7.25-1.77 3.63-3.58 7.24-5.4 10.8-1.42 2.82-2.82 5.65-4.22 8.49l-1 2c-2.91-0.641-5.43-1.57-8.11-2.85-1.13-0.537-1.13-0.537-2.29-1.08-1.17-0.56-1.17-0.56-2.36-1.13-0.793-0.377-1.59-0.754-2.4-1.14-1.95-0.928-3.9-1.86-5.85-2.79 0.608-4.09 1.96-7.16 3.91-10.8 0.593-1.12 1.19-2.23 1.8-3.38 0.313-0.583 0.626-1.17 0.948-1.77 4.73-8.84 9.23-17.7 12.8-27 3.16-8.03 7.33-15.5 11.5-23.1 1.05-1.96 2.05-3.94 3.03-5.93z" fill="#000100"/>
<path transform="translate(172 763)" d="m0 0c0.886 0.00564 1.77 0.0113 2.69 0.0171 6.27 0.117 11.7 0.695 17.4 3.3 1.47 0.603 1.47 0.603 2.98 1.22 12.1 5.4 20.1 15.6 25 27.8 3.29 9.97 4.7 19.4 5.19 29.9 0.0728 1.34 0.147 2.68 0.222 4.02 0.22 4.01 0.408 8.03 0.59 12 0.0578 1.24 0.116 2.48 0.175 3.76 0.31 6.75 0.588 13.5 0.825 20.2-2.87 1.44-5.46 1.26-8.67 1.39-0.687 0.0294-1.37 0.0588-2.08 0.0891-2.29 0.0967-4.58 0.187-6.87 0.276-1.61 0.0656-3.22 0.131-4.83 0.197-3.4 0.138-6.8 0.273-10.2 0.406-4.27 0.167-8.54 0.343-12.8 0.521-19.9 0.825-39.7 1.35-59.5 1.12-5.91-67.8-5.91-67.8 11.5-92.1 9.09-10.4 25.1-14.3 38.4-14.2zm-21.6 29.4c-8.6 11-11.8 19.4-11.5 33.4 0.00516 1.08 0.0103 2.17 0.0156 3.29 0.0563 5.8 0.372 11.4 1.23 17.2 8.27 0.0829 16.5-0.15 24.7-0.621 1.16-0.0642 2.31-0.128 3.51-0.195 2.42-0.135 4.84-0.272 7.26-0.411 3.72-0.212 7.44-0.416 11.2-0.619 2.36-0.133 4.71-0.266 7.07-0.4 1.12-0.0605 2.23-0.121 3.38-0.183 1.53-0.09 1.53-0.09 3.1-0.182 1.35-0.0766 1.35-0.0766 2.74-0.155 2.04-0.0175 2.04-0.0175 3.05-1.23 0.937-16.9 0.109-33.5-10.4-47.5-7.58-7.4-15.9-7.75-26.1-7.75-7.19 0.108-13.4 0.877-19.2 5.37z" fill="#000100"/>
<path transform="translate(1057 1261)" d="m0 0c1.49 1.02 2.94 2.09 4.38 3.19 0.831 0.617 0.831 0.617 1.68 1.25 4.75 3.74 7.23 7.5 9.63 13 0.338 0.754 0.677 1.51 1.03 2.29 2.35 5.4 4.34 10.5 4.66 16.5 0.0529 0.893 0.106 1.79 0.16 2.71-0.0803 6.67-2.01 11.9-4.91 17.8-0.502 1.02-0.502 1.02-1.02 2.07-4.88 9.28-14.8 13.7-24.2 17.4-6.27 1.49-11.7 0.983-18 0 0.461 0.802 0.923 1.6 1.4 2.43 1.79 3.12 3.57 6.23 5.34 9.36 0.872 1.53 1.74 3.06 2.62 4.59 1.39 2.43 2.76 4.87 4.14 7.31 0.445 0.778 0.89 1.56 1.35 2.36 0.411 0.732 0.821 1.46 1.24 2.22 0.368 0.649 0.736 1.3 1.12 1.97 0.791 1.77 0.791 1.77 0.791 4.77-2.58 1.32-5.16 2.63-7.75 3.94-0.73 0.373-1.46 0.746-2.21 1.13-0.709 0.358-1.42 0.715-2.15 1.08-0.649 0.33-1.3 0.66-1.97 1-1.96 0.862-3.84 1.39-5.92 1.85-8.3-14.1-16.3-28.4-23.5-43.1-2.77-5.59-5.77-11-8.87-16.4-3.87-6.82-7.32-13.9-10.7-20.9-2.01-4.12-4.01-7.93-6.78-11.6-0.696-1-1.39-2-2.11-3.04 1.4-4.2 3.55-4.59 7.44-6.56 4.61-2.26 4.61-2.26 8.56-5.44h4l3 6c2.28-2.03 2.28-2.03 3.56-5.62 4.91-9.99 14.9-14.8 24.8-18.7 10.8-2.05 20-0.822 29.2 5.12zm-41.6 24.2c-4.09 5.64-4.89 10.1-4 17 2.01 7.16 7.03 13.1 13 17.5 4.47 2.49 8.89 3.6 14 2.54 6.47-2.33 11.3-5.18 15-11 3.06-7.23 2.2-14.5-0.562-21.7-2.81-5.78-7.41-9.53-12.9-12.8-10-2.21-17.9 0.495-24.6 8.44z" fill="#000100"/>
<path transform="translate(417 314)" d="m0 0c9.26 7.97 15 17.9 16.1 30.1 0.261 10.8-1.61 19.2-7.34 28.3h-2c-0.255 0.598-0.51 1.2-0.773 1.81-3.29 5.86-11.1 9.88-17.2 12.2-3.31 0.835-6.63 1.47-10 2v2c0.559 0.214 1.12 0.428 1.7 0.648 3.12 1.83 4.9 4.18 7.18 6.98 0.438 0.535 0.875 1.07 1.33 1.62 3 3.69 5.88 7.46 8.64 11.3 1.12 1.58 1.12 1.58 3.16 2.43 0 3 0 3-1.47 4.58l-2.03 1.67c-0.722 0.605-1.44 1.21-2.19 1.83-0.763 0.633-1.53 1.27-2.31 1.92-1.5 1.31-3 2.62-4.5 3.94-1.17 1.02-2.33 2.04-3.5 3.06-5.26-4-9.1-8.56-13-13.8-3.02-4.02-6.23-7.76-9.67-11.4-12.3-13.2-12.3-13.2-12.3-16.8-0.99-0.33-1.98-0.66-3-1-1.88-2.05-1.88-2.05-4-4.75-0.794-0.995-1.59-1.99-2.41-3.02-0.632-0.794-0.632-0.794-1.28-1.6-2.22-2.75-4.52-5.44-6.82-8.13-4.25-5-8.42-10-12.5-15.2-1.89-2.24-3.87-4.3-5.97-6.34 1.31-2.93 2.66-4.87 5.04-7.02 0.58-0.529 1.16-1.06 1.76-1.6 0.603-0.539 1.21-1.08 1.83-1.63 0.611-0.554 1.22-1.11 1.85-1.68 1.5-1.36 3.01-2.72 4.52-4.07 3 1 3 1 4.19 3.06 0.268 0.639 0.536 1.28 0.812 1.94 1.13-2.21 2.19-4.43 3.19-6.7 4.7-10.2 10.8-17.7 21.3-22.4 14.2-5.24 29.6-3.39 41.8 5.69zm-47.2 21.4c-3.21 5.98-2.96 14-1.38 20.5 2.58 6.66 7.38 11.5 13.8 14.6 5.54 1.78 12 1.76 17.5-0.422 4.97-2.78 8.85-5.41 11.1-10.8 1.55-7.39 1.37-14.2-2-21-4.21-6.08-9.95-9.14-17-11-8.59-1.38-16.1 1.95-22 8z" fill="#000100"/>
<path transform="translate(1268,757)" d="m0 0c10.4 0.109 20.7 0.222 31.1 0.339 4.82 0.0545 9.64 0.108 14.5 0.158 21.2 0.221 42.3 0.549 63.4 1.5v21l-8 1c0.482 0.69 0.964 1.38 1.46 2.09 3.95 5.87 6.85 10.8 7.54 17.9 0.104 1.06 0.104 1.06 0.211 2.14 0.576 12.3-4.21 23.5-12.3 32.6-9.04 8.55-20.8 10.8-32.7 10.5-11-0.502-19.5-4.56-27.2-12.3-9.01-9.91-11.5-19.1-11.2-32.3 0.523-9.25 4.2-12.9 10.2-20.7-18.3-0.495-18.3-0.495-37-1v-23zm49 31.9c-3.69 5.77-4.55 10.9-3.66 17.6 1.84 6.94 6.83 11.1 12.8 14.6 6.13 3.05 13.1 2.72 19.6 0.785 5.9-3.41 11.2-7.14 13.2-13.9 0.595-5.82 0.889-11-1.56-16.4-5.17-5.44-9.67-9.97-17.4-10.9-9.09-0.188-16.6 1.34-23 8.25z" fill="#000100"/>
<path transform="translate(423 1206)" d="m0 0c12.7 9.47 25.1 21.4 29 37.2v3l-17 7c-3.69-8.19-3.69-8.19-4.82-10.7-2.13-4.63-4.31-7.84-8.18-11.3-0.862-0.837-1.72-1.67-2.61-2.54-8.79-8.38-8.79-8.38-20.1-11.8-3.04 0.35-4.81 0.569-7.25 2.38-1.9 2.44-2 3.96-2.06 7.06 1.58 8.34 8.11 15.1 13.6 21.2 8.26 9.36 14 20 13.9 32.7-0.8 6.72-4.68 13.1-9.35 18-8.16 6.08-16.4 7.55-26.5 6.82-19.6-3.5-33.5-19.9-44.4-35.1-2-3.05-3.13-5.01-3.13-8.72 2.27-1.32 4.54-2.63 6.81-3.94 0.964-0.56 0.964-0.56 1.95-1.13 2.72-1.57 5.25-2.94 8.24-3.93 0.387 0.808 0.773 1.62 1.17 2.45 0.521 1.07 1.04 2.14 1.58 3.24 0.51 1.06 1.02 2.11 1.55 3.2 3.47 6.33 8.23 10.6 13.7 15.1 0.654 0.576 1.31 1.15 1.98 1.75 4.7 3.91 8.81 5.78 15 5.25 3.06-1.24 4.44-2.24 6.38-4.88 1.61-5.48-1.93-11-4.36-15.8-2.97-4.91-6.61-9.07-10.4-13.3-6.85-7.96-12-18.2-11.6-29 1.44-8.06 5.88-14.8 12.3-19.8 15.3-9.82 31-3.91 44.7 5.61z" fill="#000100"/>
<path transform="translate(232,908)" d="m0 0c3.98 3.51 5.06 7.98 6.75 12.9 0.329 0.898 0.657 1.8 0.996 2.72 0.458 1.31 0.458 1.31 0.926 2.64 0.279 0.793 0.559 1.59 0.847 2.4 0.833 4.08-0.0998 6.68-2.27 10.2-0.742 1.01-1.48 2.03-2.25 3.07-5.11 7.12-9.56 14.6-14 22.1-0.998 1.67-2 3.34-3 5 0.603 0.193 1.21 0.387 1.83 0.586 0.799 0.26 1.6 0.521 2.42 0.789 1.18 0.383 1.18 0.383 2.39 0.773 2.36 0.852 2.36 0.852 4.37 2 2.58 1.1 3.91 0.754 6.62 0.102 0.869-0.196 1.74-0.392 2.63-0.594 0.905-0.217 1.81-0.433 2.74-0.656 1.83-0.428 3.66-0.846 5.5-1.25 1.22-0.286 1.22-0.286 2.47-0.578l2.03-0.172c2.82 2.82 3.5 6.21 4.62 9.94 0.229 0.729 0.459 1.46 0.695 2.21 0.938 3.05 1.68 5.65 1.68 8.85-44.5 14.9-44.5 14.9-59.5 19.3-15.3 4.51-30.4 9.57-45.5 14.7-4.31-9.43-4.31-9.43-5.75-14.4-0.242-0.812-0.485-1.62-0.734-2.46-0.516-2.16-0.516-2.16-0.516-5.16 18.1-6.67 36.4-12.6 55.1-17.5 1.93-0.496 1.93-0.496 3.87-1.54-9.87-7.06-20.7-12.6-31.8-17.7-7.17-4.15-9.46-8.02-12-15.7-0.29-0.833-0.58-1.67-0.879-2.53-0.81-2.34-1.6-4.69-2.37-7.04-0.397-1.19-0.794-2.37-1.2-3.6-0.263-0.793-0.526-1.59-0.797-2.4 5.14 0.549 9 3.08 13.4 5.62 9.58 5.46 19.3 10.4 29.6 14.4 4.29-6.11 8.56-12.2 12.5-18.6 2.49-3.99 5.19-7.71 8.06-11.4 4.11-5.38 7.4-11 10.4-17z" fill="#000100"/>
<path transform="translate(1231 1148)" d="m0 0c8.98 8.1 16.7 19.1 17.9 31.4 0.911 20.3-3.83 33.5-17 49-10 10.8-22.5 17.2-37 19h-4c-0.921-4.66-1.12-9.15-1.06-13.9 0.00451-0.688 0.00902-1.38 0.0137-2.09 0.0117-1.68 0.0296-3.36 0.0488-5.04 0.918-0.159 1.84-0.317 2.78-0.48 12.9-2.46 20.8-7.17 29.2-17.5 4.3-7.44 5.07-15.6 4-24-1.6-5.52-4.29-9.63-8-14v-2c-0.585-0.269-1.17-0.539-1.77-0.816-2.22-1.18-3.92-2.51-5.85-4.12-5.89-4.48-12.9-6.68-20.3-6.35-10.4 1.45-18.4 6.22-25.1 14.3-5.35 7.74-6.18 15.9-7 25-2.4 0.337-4.79 0.67-7.19 1-0.674 0.0954-1.35 0.191-2.04 0.289-3.61 0.493-7.13 0.931-10.8 0.711-1.79-1.79-1.26-4.32-1.31-6.75 0.207-14.7 6.9-28.2 16.7-38.9 23.3-21.3 52.2-26.5 77.6-4.79z" fill="#000100"/>
<path transform="translate(1197,319)" d="m0 0c14.6 11.6 22.5 25.8 24.8 44.3 0.0541 0.904 0.108 1.81 0.164 2.74-1 1-1 1-2.95 1.11-0.833-0.00524-1.67-0.0105-2.52-0.0159-0.899-0.00322-1.8-0.00645-2.72-0.00977-1.42-0.0126-1.42-0.0126-2.87-0.0254-1.42-0.00677-1.42-0.00677-2.88-0.0137-2.35-0.0118-4.71-0.0283-7.06-0.0488-0.159-0.834-0.317-1.67-0.48-2.53-2.53-12.2-7.14-21-16.5-29.5-2.73-1.55-4.9-2.21-8-3-0.598-0.178-1.2-0.356-1.81-0.539-7.66-1.61-16.2-1.49-23.2 2.22-8.16 5.33-15.9 13-18.5 22.6-1.54 9.82-0.29 19.5 5.5 27.7 2.14 2.32 4.45 4.15 7 6 0.534 0.451 1.07 0.902 1.62 1.37 6.81 5.5 14.8 6.83 23.4 6.63 0.34 2.19 0.671 4.37 1 6.56 0.186 1.22 0.371 2.44 0.562 3.69 0.423 3.62 0.513 7.1 0.438 10.7-14.7 0.863-29.5-2.84-40.9-12.4-12.3-11.9-22.1-25.2-22.5-42.8 0.0325-15.4 3.39-26.9 14.4-38 1.31-1.25 2.62-2.5 3.94-3.75 0.804-0.866 1.61-1.73 2.44-2.62 18.6-17.3 48-15.1 67.6-0.375z" fill="#000100"/>
<path transform="translate(772,149)" d="m0 0c0.194 2.98 0.38 5.96 0.562 8.94 0.0841 1.28 0.0841 1.28 0.17 2.58 0.0483 0.809 0.0967 1.62 0.146 2.45 0.0707 1.12 0.0707 1.12 0.143 2.27-0.0217 1.77-0.0217 1.77-1.02 2.77-2.79 0.233-5.56 0.405-8.36 0.535-0.853 0.043-1.71 0.086-2.59 0.13-1.82 0.0905-3.64 0.179-5.46 0.265-2.73 0.13-5.47 0.268-8.2 0.408-9.81 0.487-19.6 0.801-29.4 0.662l0.219 2.06c0.588 6.14 0.849 12.2 0.812 18.4-0.00226 0.732-0.00451 1.46-0.00684 2.22-0.00582 1.78-0.0148 3.56-0.0244 5.35 0.911-0.0606 1.82-0.121 2.76-0.184 32.1-2.11 32.1-2.11 47.2-1.82v18c-4.8 0.801-9.41 1.27-14.2 1.5-0.776 0.0406-1.55 0.0812-2.35 0.123-3.3 0.172-6.6 0.337-9.89 0.502-2.42 0.122-4.84 0.249-7.25 0.375-0.738 0.0354-1.48 0.0709-2.24 0.107-4.07 0.213-8.01 0.637-12 1.39 0.0303 0.588 0.0606 1.18 0.0918 1.78 0.596 11.7 1.07 23.5 0.908 35.2-5.17 0.855-10.1 1.15-15.4 1.12-1.08 0.0058-1.08 0.0058-2.19 0.0117-5.31-0.00996-5.31-0.00996-6.43-1.14-0.245-2.83-0.428-5.64-0.573-8.48-0.0489-0.89-0.0978-1.78-0.148-2.7-0.162-2.96-0.316-5.92-0.471-8.88-0.11-2.06-0.221-4.11-0.332-6.17-0.232-4.33-0.462-8.65-0.688-13-0.29-5.52-0.586-11-0.884-16.6-0.23-4.26-0.456-8.51-0.682-12.8-0.108-2.03-0.217-4.07-0.327-6.1-1.1-20.4-1.1-20.4-0.895-29.4 10-0.415 20-0.824 30-1.23 4.65-0.187 9.29-0.375 13.9-0.568 4.48-0.186 8.96-0.367 13.4-0.545 1.71-0.0687 3.42-0.139 5.14-0.212 2.39-0.101 4.78-0.195 7.18-0.288 0.713-0.0316 1.43-0.0633 2.16-0.0959 4.91-0.18 4.91-0.18 7.14 0.934z" fill="#000100"/>
<path transform="translate(713,1326)" d="m0 0c1.71 0.0539 3.42 0.181 5.13 0.34 1.03 0.0935 2.07 0.187 3.13 0.283 1.09 0.104 2.18 0.208 3.3 0.314 1.64 0.15 1.64 0.15 3.31 0.303 2.71 0.248 5.42 0.502 8.13 0.76 1.16 3.47 0.864 5.37 0.398 8.98-0.158 1.28-0.316 2.57-0.479 3.89-0.0884 0.7-0.177 1.4-0.268 2.12-2.51 20-4.22 40-5.9 60.1-0.201 2.34-0.402 4.69-0.603 7.03-0.0864 1.07-0.173 2.14-0.262 3.23-0.523 6.05-1.43 11.8-2.89 17.7-12.8-0.617-25.5-1.56-38.2-2.67-3.02-0.264-6.04-0.52-9.05-0.777-10.3-0.887-20.5-1.9-30.7-3.55 0.456-6.39 0.911-12.7 2-19 0.904 0.094 0.904 0.094 1.83 0.19 6.28 0.652 12.6 1.3 18.8 1.95 2.34 0.242 4.68 0.484 7.03 0.728 3.37 0.35 6.74 0.696 10.1 1.04 1.05 0.109 2.09 0.219 3.17 0.331 0.981 0.1 1.96 0.2 2.97 0.303 0.859 0.0888 1.72 0.178 2.6 0.269 2.48 0.191 4.97 0.19 7.46 0.19l3-27c-3.05-0.349-6.09-0.699-9.23-1.06-2.96-0.34-5.91-0.682-8.87-1.02-2.05-0.236-4.1-0.472-6.15-0.707-2.95-0.338-5.9-0.679-8.85-1.02-1.37-0.156-1.37-0.156-2.77-0.316-4.08-0.475-8.11-0.968-12.1-1.88 0.142-2.23 0.289-4.46 0.438-6.69 0.0812-1.24 0.162-2.48 0.246-3.76 0.262-2.94 0.71-5.67 1.32-8.55 6.19 0.69 12.4 1.38 18.6 2.08 2.11 0.237 4.21 0.472 6.32 0.707 3.03 0.338 6.06 0.679 9.08 1.02 1.41 0.156 1.41 0.156 2.85 0.316 0.881 0.1 1.76 0.2 2.67 0.303 0.773 0.0866 1.55 0.173 2.34 0.262 2.1 0.303 4.1 0.757 6.15 1.31 0.049-0.744 0.098-1.49 0.148-2.25 0.55-8.03 1.18-16 1.85-24.1 0.083-1.03 0.166-2.07 0.251-3.13 0.123-1.45 0.123-1.45 0.249-2.92 0.0722-0.869 0.144-1.74 0.219-2.63 0.281-2 0.281-2 1.28-3z" fill="#000100"/>
<path transform="translate(338,382)" d="m0 0c1.17 0.654 1.17 0.654 2.36 1.32 10 6.15 15.9 14.6 19.6 25.7 2.7 13.8-1.21 24.1-8 36-6.42 9.53-17.2 16-27.9 19.6-12.7 2.13-22.7-0.301-33.1-7.65-9.17-7.85-16.1-16.6-17.3-29-0.447-15.1 5.42-26.8 15.6-37.8 12.9-12.3 32.6-17.3 48.7-8.25zm-39.4 25.8c-3.26 4.78-4.61 8.44-4.61 14.2 1.82 8.45 7.21 13.9 14 18.7 4.85 3.08 9.31 3.76 15 3.26 6.87-1.87 10.9-6.3 15-12 2.53-5.29 3.09-10.5 1.35-16.1-3.47-7.66-9.21-13.1-17-16.2-9.32-2.62-17.7 0.471-23.7 8.1z" fill="#000100"/>
<path transform="translate(1302 1026)" d="m0 0c6.71 6.09 9.91 14.2 10.7 23.2 0.0632 0.74 0.126 1.48 0.191 2.24 0.578 12.6-2.74 26.2-11.2 35.8-6.66 6.37-14.1 11.4-23 14-0.646 0.189-1.29 0.379-1.96 0.574-10.4 2.17-19.9-0.421-28.7-5.89-1.79-1.21-3.56-2.43-5.31-3.69-0.684-0.486-1.37-0.972-2.07-1.47-6.82-5.31-10.3-12.4-11.6-20.9-1.33-12.6-0.209-26.3 7.72-36.7 19-22.2 42-25.6 65.3-7.15zm-51.1 19.2c-3.31 5.5-3.69 11.7-2.71 17.9 1.58 6.23 5.81 9.48 11 12.7 5.74 3.05 11.9 5.27 18.5 4.02 5.55-1.92 10.5-5.16 13.6-10.3 2.55-6.14 2.88-13.7 0.484-19.9-4.14-7.02-10.3-11.1-18-13.5-9.43-1.46-16.9 1.51-22.8 9.02z" fill="#000100"/>
<path transform="translate(1144 1212)" d="m0 0c7.66 6.55 13.3 18.2 14.1 28.1 0.444 12.7-4.23 23.1-12.4 32.6-9.04 9.62-19.1 15.8-32.5 16.3-13.3 0.159-21-3.35-30.6-12.6-8.77-9.05-12.1-16.3-12.2-29-0.0101-0.847-0.0201-1.69-0.0305-2.57 0.169-12.3 6.24-21 14.8-29.6 17.9-15.4 39.4-16.4 58.8-3.29zm-49.7 20.3c-3.19 5.12-3.01 10.5-2.44 16.3 2.12 6.98 7.19 13.4 13.3 17.4 5.7 2.89 11.3 3.28 17.4 1.5 6.17-2.39 9.8-6.65 12.5-12.6 2.06-6.46 1.45-12.5-1.33-18.6-3.53-6.29-8.07-10.4-14.9-12.7-10.2-1.5-17.5 1.27-24.6 8.69z" fill="#000100"/>
<path transform="translate(1243 408)" d="m0 0c9.19 7.07 17.5 18.4 19.6 30 1.15 13.7-1.2 23.3-10 34-0.514 0.735-1.03 1.47-1.56 2.23-0.713 0.878-0.713 0.878-1.44 1.77h-2v2c-9.88 7.54-20.7 10.3-33 9-11.8-2.65-22.1-10.1-29-20-7.01-12.1-11.6-23.3-8.16-37.5 4.73-13.4 12.7-21.2 25.2-27.6 14.3-6.49 27.9-2.23 40.3 6.08zm-35.4 18c-0.713 0.531-1.43 1.06-2.16 1.61-4.77 3.78-7.85 7.27-8.84 13.4-0.368 6.76 1.75 11.8 6 17 3.79 3.99 7.47 6.98 13 8 7.93-0.256 13.9-2.82 19.8-8.25 4.49-4.82 7.4-9.63 7.75-16.3-0.409-7.23-3.98-11.1-9.12-15.8-5.25-4.51-8.36-5.04-15.3-4.96-4.73 0.518-7.5 2.37-11.1 5.34z" fill="#000100"/>
<path transform="translate(262,500)" d="m0 0c2.4 1.67 2.4 1.67 4 3-1.61 4.27-3.62 8.31-5.69 12.4-3 5.94-5.88 11.9-8.65 18-2.56 5.53-5.29 11-8.08 16.4-1.55 3.05-2.98 5.89-3.58 9.28 9.97-1.06 15.6-4.19 22.4-11.4 5.81-7.29 4.85-15.7 4.62-24.6 5.56-2.66 10.9-3.96 17-5 3.25 8.44 3.52 19.2 0.105 27.7-7.05 14.7-13.8 26.1-29.2 32.7-9.42 3.15-20.6 3.22-29.6-1.11-1.14-0.625-1.14-0.625-2.3-1.26-0.864-0.447-1.73-0.895-2.62-1.36-11.4-6.31-16.3-15.4-20.4-27.6-0.919-10.5 0.308-18.5 5-28 0.446-0.908 0.892-1.82 1.35-2.75 5.58-10.2 14.4-17.3 25.5-20.9 10.8-2.02 20.3 0.0172 30.1 4.61zm-38.7 21.6c-3.88 4.72-6.63 9.54-6.11 15.8 0.949 4.67 2.12 9.05 5.73 12.3 2.09 1.51 2.09 1.51 5.06 1.25l1.56-3.12c4.09-8.17 4.09-8.17 4.97-9.94 0.606-1.21 1.21-2.42 1.81-3.64 1.38-2.77 2.78-5.54 4.22-8.28 0.454-0.871 0.908-1.74 1.38-2.64 0.401-0.755 0.802-1.51 1.21-2.29 1.1-2.33 1.1-2.33 0.848-6.09-8.87-0.426-14.3-0.02-20.7 6.62z" fill="#000100"/>
<path transform="translate(488,256)" d="m0 0c7.3 5.7 15.8 12.6 18 22-7.6 5.57-15.5 10.1-23.8 14.5-5.6 2.98-10.8 6.21-15.9 9.98-3.53 2.39-7.34 4.02-11.3 5.56 1.14 3.41 1.52 3.63 4.56 5.19 6.42 2.95 11.4 2.33 17.9 0.188 5.91-2.35 11.6-4.93 14.8-10.7 0.666-1.58 1.28-3.17 1.84-4.79 0.293-0.612 0.585-1.22 0.887-1.86 3.94-1.31 5.78-0.339 9.69 0.938 1.18 0.38 2.36 0.761 3.57 1.15 0.904 0.3 1.81 0.601 2.74 0.91 1.36 4.45 0.632 6.71-1.44 10.8-5.98 11.2-15.3 18.7-27.4 22.5-2.06 0.582-4.12 1.15-6.19 1.69-0.634 0.192-1.27 0.384-1.92 0.582-12.4 2.5-24.5-0.0841-35.1-6.96-8.44-7.39-12.9-18.3-14.6-29.2-0.432-11.2 2.4-22.3 9.74-30.9 13.3-13.3 36.2-23.2 53.8-11.5zm-37.8 19.8c-4.49 6.49-5.72 11.5-5.25 19.2 1.79 1.21 1.79 1.21 4 2 1.81-0.641 1.81-0.641 3.5-2 3.33-2.29 6.67-4.13 10.3-5.88 5.96-2.93 11.9-6.05 17.2-10.1l1-3c-5.97-5.12-10.5-6.42-18.3-6.25-5.4 0.488-8.57 2.09-12.5 6z" fill="#000100"/>
<path transform="translate(968,1305)" d="m0 0c8.19 6.42 14 16.8 16 27 1.55 13.2-2.7 24.3-10.8 34.6-7.78 8.35-20 12.5-31.1 13.8-11.8 0.348-21.3-2.47-30.1-10.4-6.38-6.38-10.9-15-12-24 7.64-3.15 15.4-6.01 23.2-8.78 1.99-0.712 3.98-1.43 5.98-2.15 8.85-3.17 17.7-5.79 26.8-8.07-2.24-4.7-5.25-7.63-10-10-9.66-1.14-16.9 0.528-25 6-1.33 1.27-2.63 2.58-3.88 3.94-2.81 3.03-2.81 3.03-5.94 3.31-4.55-1.79-8.88-3.94-13.2-6.25 1.2-7.28 4.86-11.4 10.7-15.6 18.3-12 40.2-16.6 59.3-3.38zm-14.1 35.8c-1.83 0.6-1.83 0.6-3.69 1.21-1.29 0.432-2.57 0.865-3.86 1.3-15.3 5.08-15.3 5.08-22.3 6.69 1.09 5.44 4.26 8.79 8.69 11.9 5.9 2 11.7 2.15 17.5-0.375 5.6-3.18 10.4-8.52 12.8-14.5 0.0777-2.33 0.0897-4.67 0-7-3.84-1.28-5.33-0.471-9.14 0.801z" fill="#000100"/>
<path transform="translate(916 195)" d="m0 0c9.1 7.14 14.8 15.2 17.1 26.8 1.41 12.4-1.21 23.9-8.35 34.2-5.76 7.22-13.1 12.1-22.2 13.8-3.69 0.314-7.36 0.408-11.1 0.438-0.922 0.0102-1.84 0.0203-2.79 0.0308-12.5-0.158-22.4-4.44-31.7-12.8-8.87-9.14-11.6-19.1-11.4-31.7 0.831-11.9 5.24-21.8 14-30 14.7-12.2 41.1-10.9 56.5-0.75zm-42.8 18.1c-5.73 6.88-5.59 15.1-4.98 23.7 0.659 4.43 2.99 7.12 6.29 9.95l2.56 2.44c6.33 2.88 14.1 3.65 20.8 1.62 5.7-2.64 9.49-7.59 12.1-13.2 1.17-8.08 2.28-17-2.1-24.3-3.9-4.51-9.3-6.33-15.1-6.75-8.24-0.127-13.8 0.21-19.5 6.58z" fill="#000100"/>
<path transform="translate(1291,472)" d="m0 0c0.326 0.808 0.652 1.62 0.988 2.45 0.437 1.07 0.874 2.14 1.32 3.24 0.644 1.58 0.644 1.58 1.3 3.2 1.3 3.11 1.3 3.11 3.05 5.82 1.33 2.29 1.33 2.29 1.33 5.29l-6 3c0.664 0.459 1.33 0.918 2.01 1.39 1.82 1.27 3.64 2.54 5.45 3.82 1.74 1.23 3.51 2.42 5.29 3.6 7.37 7.17 11.6 17.5 12.2 27.7 0.0583 9.32-3.79 15.6-9.98 22.5-3.13 2.73-6.44 4.88-10 7-1.09 0.669-2.17 1.34-3.29 2.03-6.6 3.97-13.1 7-20.4 9.61-6.11 2.5-11.7 5.96-17.3 9.36-3.99-2.66-4.9-5.57-6.75-9.88-0.329-0.721-0.657-1.44-0.996-2.18-0.306-0.7-0.611-1.4-0.926-2.12-0.279-0.637-0.559-1.27-0.847-1.93-0.623-2.45-0.546-3.59 0.519-5.89 2.19-1.54 2.19-1.54 5.07-2.99 1.05-0.538 2.11-1.08 3.19-1.63 1.13-0.559 2.26-1.12 3.42-1.69 1.14-0.578 2.27-1.16 3.45-1.75 4.8-2.43 9.62-4.83 14.5-7.17 0.634-0.308 1.27-0.617 1.92-0.934 1.6-0.77 3.2-1.52 4.81-2.27 3.87-2.27 6.81-5 8.98-8.94 1.64-6.25 0.637-10.9-2.11-16.6-2-3.35-4.37-5.47-8.12-6.59-15.2-3.14-28.8 6.41-41.3 13.8-3.84 2.26-7.65 4.11-11.8 5.74-4.41-6.34-8.54-12.6-11-20 21.2-11.7 21.2-11.7 31.8-16.9 6.09-3.01 12.1-6.13 18.1-9.27 0.96-0.5 1.92-0.999 2.91-1.51 5.18-2.71 10.3-5.48 15.4-8.41 1.78-0.889 1.78-0.889 3.78-0.889z" fill="#000100"/>
<path transform="translate(1352 666)" d="m0 0c10.3 7.25 16.2 15.7 18.9 28 0.972 12.3 1.16 25-7.02 35-9.31 9.44-19.8 15-33 16-2.26-5.81-3.03-11.8-3.95-17.9-0.175-1.14-0.349-2.28-0.53-3.46-0.367-2.4-0.732-4.81-1.09-7.21-0.556-3.69-1.12-7.38-1.69-11.1-0.356-2.34-0.711-4.67-1.07-7.01-0.169-1.11-0.337-2.22-0.511-3.36-0.154-1.02-0.307-2.04-0.466-3.1-0.136-0.901-0.272-1.8-0.412-2.73-0.29-2.17-0.29-2.17-0.29-4.17-5.64 1.95-8.05 3.56-11 9-2.81 8.44-1.85 20 2 28 1.31 1.8 1.31 1.8 2.75 3.38 2.25 2.62 2.25 2.62 2.31 4.75-1.35 2.39-3.1 3.96-5.06 5.88-1.37 1.98-2.71 3.97-4 6-5.42-0.82-7.76-4.94-11-9-0.742-0.887-1.48-1.77-2.25-2.69-4.62-8.75-5.02-17.9-5.06-27.6-0.00822-1.38-0.00822-1.38-0.0166-2.79 0.106-10.2 1.8-18.9 8.33-27 15.3-13.8 36.1-18.3 54.1-7.05zm-18.1 15c-1.56 4.06-0.542 7.91 0.215 12 0.135 0.771 0.269 1.54 0.408 2.34 0.431 2.46 0.873 4.91 1.31 7.37 0.294 1.67 0.588 3.34 0.881 5 0.719 4.08 1.45 8.17 2.18 12.2 3.25 1.01 3.25 1.01 6.5-0.0625 4.68-3.62 7.11-8.25 8.5-13.9 0.863-7.48-1.77-14-6.19-19.9-3.97-2.91-8.8-5.06-13.8-5.06z" fill="#000100"/>
<path transform="translate(573,1296)" d="m0 0c4.78 0.595 9.26 1.5 13.9 2.88 1.7 0.491 1.7 0.491 3.43 0.992 0.889 0.374 1.78 0.748 2.7 1.13 1.31 3.94 0.243 6.12-1 10 0.548-0.289 1.1-0.578 1.66-0.875 9.73-4.56 20.9-4.78 31.1-1.16 8.89 4.05 15.1 9.82 19.1 18.8 3.33 10.7 0.212 21-3 31.3-0.413 1.37-0.824 2.73-1.23 4.1-1.19 3.95-2.41 7.9-3.64 11.8-0.502 1.62-0.502 1.62-1.02 3.28-1.63 5.25-3.29 10.5-4.98 15.7-4.69-0.621-9.27-1.44-13.9-2.5-1.13-0.258-2.26-0.516-3.43-0.781-2.7-0.719-2.7-0.719-3.7-1.72 0.138-6.01 1.57-11.7 3.29-17.4 0.453-1.57 0.905-3.14 1.36-4.71 0.709-2.43 1.42-4.86 2.14-7.29 0.699-2.37 1.38-4.75 2.07-7.13 0.216-0.713 0.431-1.43 0.653-2.16 1.7-5.97 2.67-12.2 0.437-18.1-4.63-5.23-9.72-6.86-16.5-7.29-4.63 0.194-7.86 1.81-11.5 4.77-2.46 2.91-3.5 5.91-4.63 9.49-0.344 1.04-0.344 1.04-0.694 2.11-0.728 2.22-1.44 4.45-2.15 6.68-0.477 1.46-0.955 2.92-1.43 4.38-1.8 5.52-3.59 11-5.23 16.6-0.348 1.18-0.696 2.36-1.05 3.57-0.298 1.04-0.597 2.08-0.904 3.15-0.877 2.34-0.877 2.34-2.88 3.34-3.42-0.677-6.73-1.79-10.1-2.81-0.937-0.274-1.87-0.548-2.84-0.83-1.34-0.403-1.34-0.403-2.7-0.814-0.82-0.247-1.64-0.495-2.48-0.749-1.92-0.794-1.92-0.794-2.92-2.79 0.478-2.05 0.478-2.05 1.34-4.61 0.318-0.967 0.636-1.93 0.964-2.93 0.355-1.06 0.71-2.12 1.08-3.21 0.746-2.28 1.49-4.56 2.23-6.84 0.392-1.21 0.785-2.41 1.19-3.66 5.7-17.7 11-35.6 15.2-53.8z" fill="#000100"/>
<path transform="translate(304 1076)" d="m0 0c2.35 1.38 3.02 2.73 4.21 5.16 2.2 4.28 4.69 8.02 7.56 11.9l-6 4c2.72 1.4 5.47 2.6 8.31 3.75 10.6 4.8 15.9 13.2 20.1 23.9 1.49 8.76 0.542 15.5-4.12 23.1-5.31 5.16-12.5 7.75-19.9 7.66-7.36-1.26-14.7-5.66-19.4-11.4-0.527-0.647-1.05-1.29-1.6-1.96-12.4-15.5-12.4-15.5-12.4-19-3.78 0.944-4.98 1.97-7.38 5.12-2.06 4.05-1.91 7.58-0.625 11.9 4.05 9.94 13.9 16.9 23 22l-8 15c-15.1-6.86-29.1-18.7-35.7-34.4-2.8-9.27-2.81-19.9 1.69-28.6 2.57-3.48 5.21-6.17 8.62-8.81 3.48-2.71 6.91-5.45 10.3-8.25 4.18-3.36 8.55-6.19 13.1-8.99 4.05-2.68 7.82-5.7 11.5-8.83 3.83-3.1 3.83-3.1 6.64-3.15zm-13.2 35c-1.01 1.78-1.01 1.78-1 4 3.39 7.64 9.07 14.3 16 19 4.51 1.53 6.07 1.43 10.4-0.562 2.78-2.22 2.78-2.22 3.69-5.25-0.121-6.17-3.27-11.4-7.06-16.2-4-3.3-7.83-4.62-13-4.32-3.46 0.562-5.94 1.58-9 3.32z" fill="#000100"/>
<path transform="translate(201,670)" d="m0 0c-1.38 11.5-2.97 23-4.66 34.5-0.409 2.78-0.813 5.57-1.22 8.35-0.261 1.78-0.522 3.57-0.783 5.35-0.12 0.826-0.24 1.65-0.363 2.5-0.114 0.769-0.227 1.54-0.344 2.33-0.0983 0.671-0.197 1.34-0.298 2.03-0.348 2.01-0.817 3.96-1.33 5.93 8.29-2 8.29-2 15-7 5.77-11.1 5-24.1 2-36 1.71-1.54 3.45-3.06 5.19-4.56 0.963-0.847 1.93-1.69 2.92-2.57 2.89-1.87 2.89-1.87 5.62-1.94 2.28 1.07 2.28 1.07 3.61 3.14 0.304 0.862 0.608 1.72 0.922 2.61 0.472 1.27 0.472 1.27 0.953 2.57 4.03 13.8 3.38 32.6-3.59 45.3-5.56 8.46-12.6 16-22.5 18.8-12.5 2.26-25.7 1.78-36.7-4.94-8.93-6.4-15-14.6-17.4-25.4-0.216-3.08-0.185-6.16-0.188-9.25-0.0122-0.821-0.0245-1.64-0.0371-2.49-0.0276-11.6 3.46-21.7 11.6-30.1 11.4-10.7 26.5-12.3 41.6-9.12zm-29 22c-4.7 5.61-7.58 12.4-7.38 19.8 1.16 6.71 5.09 13 10.4 17.2 2.12 0.952 2.12 0.952 4 1 1.98-1.98 1.8-5.61 2.19-8.32 0.11-0.739 0.219-1.48 0.332-2.24 0.231-1.57 0.461-3.14 0.688-4.71 0.347-2.39 0.703-4.78 1.06-7.16 0.224-1.53 0.447-3.05 0.67-4.58 0.159-1.06 0.159-1.06 0.322-2.15 0.569-3.98 0.843-7.82 0.737-11.8-5.11-0.374-8.55 0.414-13 3z" fill="#000100"/>
<path transform="translate(1338 586)" d="m0 0c9.01 8.18 12.7 19.8 13.9 31.7 0.394 10.7-2.62 19.8-8.32 28.8-7.09-1.32-11.7-7.59-16-13 0.289-0.701 0.578-1.4 0.875-2.12 0.371-0.949 0.742-1.9 1.12-2.88l1.12-2.81c1.92-6.99 1.15-12.8-2.12-19.2-3.52-5.34-6.91-7.58-13-9-7.49-0.989-14.7 1.94-21 5.88-4.34 4.62-6 9.84-6 16.1 0.628 5.78 2.03 10.6 6 15 3.23 1.92 6.55 3.51 10 5-0.386 7.11-1.39 13.4-4 20-9.3-1.09-17.7-6.47-23.5-13.8-5.94-9.1-8.85-18.8-8.77-29.6 0.00564-0.841 0.0113-1.68 0.0171-2.55 0.222-11.3 3.17-18.8 11.1-27 18.4-17.2 40.1-16.4 58.7-0.66z" fill="#000100"/>
<path transform="translate(247,1006)" d="m0 0c9.84 0.562 17.6 2.04 24.6 9.38 11.3 13.6 15.4 26.1 14.4 43.6-1.37 9.96-9.32 19.7-17.1 25.8-10.7 6.49-23.8 7.62-35.9 5.18-11.4-3.13-18.9-10.8-24.6-20.8-6-11.2-9.18-22-5.77-34.6 1.24-3.6 2.57-6.09 5.36-8.64 5.97 1.57 10.8 4.75 16 8-0.486 3.12-0.999 6-2 9-1.06 7.39 1.05 12.8 5 19 3.29 4.04 5.9 5.9 11 7 8.53 0.839 14.7-1.94 21.4-7.25 4.45-4.18 6.44-8.05 6.75-14.2-0.298-6.21-1.9-11.9-6.12-16.6-4.42-2.59-9.06-3.76-14-5l1-20z" fill="#000100"/>
<path transform="translate(183,568)" d="m0 0c3.1 0.586 4.85 1.44 7.18 3.55 0.592 0.527 1.18 1.05 1.79 1.6 0.941 0.853 0.941 0.853 1.9 1.72 4.98 4.43 10 8.69 15.3 12.8 4.49 3.46 8.75 7.05 12.9 10.9 4.05 3.8 8.21 7.32 12.6 10.7 0.54 0.416 1.08 0.831 1.64 1.26 2.46 1.88 4.94 3.66 7.53 5.35 5.83 3.93 5.83 3.93 6.64 7.04-0.152 2.56-0.725 4.65-1.5 7.1-0.191 0.616-0.381 1.23-0.578 1.87-1.38 4.41-2.87 8.78-4.42 13.1-7.87 1.79-15.7 2.7-23.8 3.44-1.33 0.125-2.66 0.251-4 0.376-11.2 1.04-22.5 1.97-33.7 2.87-0.821 0.0666-1.64 0.133-2.49 0.202-2.36 0.19-4.71 0.376-7.07 0.56-0.692 0.0561-1.38 0.112-2.1 0.17-4.65 0.355-9.25 0.427-13.9 0.381 0.787-4.54 2.12-8.86 3.5-13.2 0.226-0.732 0.451-1.46 0.684-2.22 1.69-5.41 1.69-5.41 2.82-6.53 2.9-0.37 5.78-0.675 8.69-0.938 1.36-0.126 1.36-0.126 2.76-0.255 8.47-0.758 16.9-1.36 25.4-1.93 1.29-0.0876 2.58-0.175 3.91-0.265 1.23-0.08 2.45-0.16 3.71-0.242 1.63-0.107 1.63-0.107 3.29-0.215 3.41-0.161 6.8-0.177 10.2-0.152-1.11-1.11-2.22-2.22-3.34-3.32-1.21-1.22-2.4-2.45-3.58-3.7-5.02-5.21-10.3-9.47-16.2-13.7-3.56-2.76-6.56-5.86-9.67-9.11-3.72-3.56-7.94-6.36-12.2-9.15 0.747-4.42 2.12-8.58 3.56-12.8 0.234-0.693 0.468-1.39 0.709-2.1 0.573-1.7 1.15-3.39 1.73-5.09z" fill="#000100"/>
<path transform="translate(1354,855)" d="m0 0c5.82-0.0797 11.3 0.00359 17 1 1.53 4.08 0.631 7.79 0 12 4.86 1.97 9.44 2.41 14.6 2.75 2.39 0.246 2.39 0.246 4.39 1.25-0.279 3.08-0.575 6.17-0.875 9.25-0.0786 0.873-0.157 1.75-0.238 2.64-0.126 1.27-0.126 1.27-0.254 2.56-0.0733 0.775-0.147 1.55-0.222 2.35-0.411 2.2-0.411 2.2-2.41 6.2l-19-3c-0.618 5.88-0.618 5.88-1.23 11.8-0.0787 0.728-0.157 1.46-0.239 2.21-0.0786 0.749-0.157 1.5-0.238 2.27-0.297 1.77-0.297 1.77-1.3 2.77-2.7-0.0909-5.37-0.237-8.06-0.438-0.759-0.0522-1.52-0.104-2.3-0.158-1.88-0.13-3.76-0.267-5.64-0.404-1.14-4.34-0.931-8.39-0.562-12.8 0.0522-0.693 0.104-1.39 0.158-2.1 0.129-1.7 0.266-3.39 0.404-5.09-4.3-0.718-8.61-1.43-12.9-2.14-1.46-0.241-2.93-0.483-4.39-0.728-2.11-0.352-4.22-0.698-6.33-1.04-1.9-0.314-1.9-0.314-3.84-0.635-6.58-1.04-6.58-1.04-12.3 1.6-3.65 4.9-3.33 10-3.19 15.9-5.45 1.39-10.4 2.24-16 2-4.33-9.43-2.03-19.4 0.832-28.9 2.61-6.9 5.79-9.75 12.2-13.1 7.61-3.4 15.8-2.1 23.8-0.688 0.786 0.133 1.57 0.266 2.38 0.404 2.48 0.421 4.95 0.852 7.43 1.28 1.69 0.29 3.39 0.579 5.08 0.867 4.12 0.703 8.24 1.42 12.4 2.13l1-12z" fill="#000100"/>
<path transform="translate(348,1141)" d="m0 0c10.2 4.63 18.4 9.16 23.1 19.7 2.77 7.37 3.36 15.8 0.312 23.2-3.56 6.37-9.34 11-14.7 15.7-3.08 2.74-5.74 5.65-8.32 8.86-2.16 2.4-4.62 3.89-7.38 5.53l1 5h2c1.38 1.63 2.72 3.29 4 5-1.52 3.88-3.86 5.74-7.12 8.25-0.91 0.706-1.82 1.41-2.76 2.14-0.699 0.531-1.4 1.06-2.12 1.61-3.76-1.72-6.15-3.99-9-7-4.96 3.75-9.73 7.46-14 12-3.42-1.14-3.8-1.81-5.75-4.69-2.95-4.11-6.28-7.21-10.2-10.3 1.36-2.84 2.55-4.96 5-7h2l1-3c1.29-1.37 2.62-2.71 4-4-1.43-3.18-3.18-5.54-5.5-8.12-0.608-0.683-1.22-1.37-1.84-2.07-1.19-1.3-2.41-2.56-3.66-3.8 0.143-2.96 0.993-3.99 3.07-6.14 0.824-0.696 1.65-1.39 2.5-2.11 0.826-0.706 1.65-1.41 2.5-2.14 0.638-0.531 1.28-1.06 1.93-1.61 3.45 1.24 6.04 2.59 8.81 5 0.605 0.516 1.21 1.03 1.83 1.56 1.36 1.44 1.36 1.44 1.36 3.44l5 2c0.522-0.617 1.04-1.23 1.58-1.87 4.11-4.73 8.26-8.97 13.2-12.9 7.06-5.51 7.06-5.51 11.2-13.2 0-4.43-1.68-7.32-4.38-10.8-2.05-1.58-4.22-2.32-6.62-3.25 1.14-2.31 2.29-4.63 3.44-6.94 0.325-0.659 0.651-1.32 0.986-2 2.46-4.95 2.46-4.95 3.58-6.06z" fill="#000100"/>
<path transform="translate(1313 968)" d="m0 0c5.21 1.99 10.2 3.23 15.7 4.08l3-9c6.49 0.472 11.1 2.16 17 5l-1 12 16 6c-0.855 5.13-1.98 9.08-3.88 13.8-0.257 0.68-0.513 1.36-0.777 2.06-0.693 1.75-1.51 3.44-2.35 5.13-3.38 1.13-3.73 0.963-6.79-0.434-0.712-0.319-1.42-0.638-2.16-0.967-1.11-0.513-1.11-0.513-2.24-1.04-0.75-0.338-1.5-0.677-2.27-1.03-1.85-0.837-3.7-1.69-5.54-2.54-0.189 0.589-0.379 1.18-0.574 1.78-1.89 5.85-4.09 11.5-6.43 17.2-5.47-1.75-10.8-3.66-16-6 0.648-4.03 1.93-7.45 3.56-11.2 1.8-3.78 1.8-3.78 2.44-7.81-1.2-0.375-2.4-0.75-3.63-1.14-0.781-0.245-1.56-0.491-2.37-0.744-1.72-0.541-3.44-1.08-5.17-1.62-4.1-1.29-8.18-2.6-12.2-4.05-0.666-0.235-1.33-0.47-2.02-0.712-1.8-0.642-3.6-1.3-5.39-1.96-3.52-0.863-5.72-0.699-9.2 0.215-2.98 1.82-3.84 3.35-4.69 6.71-0.51 2.76-0.948 5.51-1.31 8.29-2.65 0.0268-5.29 0.0468-7.94 0.0625-0.755 0.00838-1.51 0.0168-2.29 0.0254-1.93 0.00863-3.85-0.0356-5.78-0.0879-1-1-1-1-1.31-4.75 0.155-10.8 4.47-20.9 11.8-28.8 13.1-12 29.6-4.06 43.8 1.47z" fill="#000100"/>
<path transform="translate(222,430)" d="m0 0c3.47 1.28 6.4 2.78 9.45 4.87 1.26 0.853 1.26 0.853 2.54 1.72 0.889 0.608 1.78 1.22 2.7 1.84 6.86 4.64 13.8 9.13 20.9 13.4 6.23 3.73 12 7.74 17.7 12.2 3.52 2.56 7.23 4.53 11.1 6.53 4.47 2.46 8.52 5.47 12.7 8.46 1.77 1.23 3.54 2.46 5.31 3.69 3.33 2.33 6.57 4.71 9.69 7.31-1.6 4.39-3.78 8.29-6.12 12.3-0.373 0.645-0.745 1.29-1.13 1.96-0.912 1.58-1.83 3.16-2.75 4.73-5.85-1.49-10.1-4.61-14.9-8.06-5.85-4.09-11.7-8.04-17.9-11.6-5.66-3.3-11-6.93-16.3-10.8-4.05-2.94-8.18-5.59-12.5-8.1-7.22-4.23-14.2-8.87-21-13.7-3.76-2.64-7.6-5.18-11.4-7.71 3.17-7 7.37-12.9 12-19z" fill="#000100"/>
<path transform="translate(501,1262)" d="m0 0c4.96 0.616 8.94 2.8 13.3 5.06 0.741 0.377 1.48 0.754 2.24 1.14 1.82 0.926 3.63 1.86 5.44 2.79l-1.47 2.94c-0.319 0.639-0.639 1.28-0.968 1.94-0.722 1.44-1.45 2.89-2.17 4.33-1.76 3.52-3.52 7.04-5.25 10.6-4.54 9.23-9.41 18.3-14.4 27.3-3.24 5.96-6.3 12-9.1 18.1-2.83 6.22-6.04 11.9-9.72 17.7-3.26 5.24-6.1 10.7-8.96 16.2-2.77-1.29-5.54-2.58-8.31-3.88-0.786-0.365-1.57-0.73-2.38-1.11-0.757-0.354-1.51-0.709-2.29-1.07-0.696-0.325-1.39-0.649-2.11-0.984-1.9-0.961-1.9-0.961-4.9-2.96 0.576-3.69 1.58-6.38 3.48-9.59 0.503-0.86 1.01-1.72 1.52-2.61 0.804-1.36 0.804-1.36 1.63-2.74 4.79-8.22 9.23-16.5 13.4-25.1 3.47-7.16 7.27-14.1 11.2-20.9 4.67-8.16 9-16.4 12.9-24.9 1.97-4.35 4.13-8.22 6.89-12.1z" fill="#000100"/>
<path transform="translate(538,1280)" d="m0 0c4.96 0.616 8.94 2.8 13.3 5.06 0.741 0.377 1.48 0.754 2.24 1.14 1.82 0.926 3.63 1.86 5.44 2.79-0.282 0.702-0.564 1.4-0.854 2.13-1.17 2.94-2.32 5.89-3.47 8.83-5.63 14.3-11.5 28.4-18 42.4-3.24 7.07-6.46 14.1-9.08 21.4-2.08 5.79-4.33 11.5-6.75 17.1-0.325 0.789-0.651 1.58-0.986 2.39-2.38 5.44-2.38 5.44-4.74 6.49-2.66 0.222-4.06-0.352-6.48-1.47-0.799-0.364-1.6-0.728-2.42-1.1-1.24-0.585-1.24-0.585-2.5-1.18-0.84-0.386-1.68-0.772-2.55-1.17-2.07-0.954-4.14-1.92-6.2-2.89 0.626-5 2.85-9.05 5.06-13.5 3.37-6.93 6.34-13.9 9-21.1 2.66-7.2 5.59-14.1 8.93-21 5.31-11 10-22.3 14.1-33.9 1.66-4.3 3.79-8.37 5.94-12.4z" fill="#000100"/>
<path transform="translate(793,174)" d="m0 0c1.57 0.0538 3.13 0.181 4.69 0.34 0.944 0.0935 1.89 0.187 2.86 0.283 0.993 0.104 1.99 0.208 3.01 0.314 0.997 0.0999 1.99 0.2 3.02 0.303 2.47 0.248 4.94 0.502 7.42 0.76 1.31 3.94 0.243 6.12-1 10 0.641-0.326 1.28-0.652 1.94-0.988 1.8-0.91 3.61-1.81 5.41-2.7 2.02-0.998 4.02-2.02 6.02-3.06 5.1-1.76 10.2-2.22 15.6-2.25l1 1c-0.0653 2.43-0.192 4.83-0.375 7.25-0.0438 0.669-0.0877 1.34-0.133 2.03-0.258 3.64-0.677 7.16-1.49 10.7-1.36 0.0213-1.36 0.0213-2.75 0.043-7.82 0.306-14.2 0.73-20.3 5.96-6.58 8.39-6.18 19.2-6.75 29.4-0.165 2.6-0.337 5.2-0.51 7.81-0.105 1.61-0.205 3.22-0.297 4.83-0.208 3.45-0.534 6.66-1.44 9.99-3.29-0.139-6.58-0.287-9.88-0.438-0.937-0.0393-1.87-0.0786-2.84-0.119-0.896-0.0419-1.79-0.0838-2.71-0.127-0.827-0.0367-1.65-0.0733-2.51-0.111-2.06-0.205-2.06-0.205-4.06-1.21 0.543-16.7 1.47-33.3 2.73-49.9 0.277-3.68 0.543-7.36 0.81-11 0.174-2.34 0.348-4.69 0.523-7.03 0.0792-1.1 0.158-2.2 0.24-3.33 0.115-1.5 0.115-1.5 0.233-3.03 0.0658-0.882 0.132-1.76 0.199-2.67 0.265-2 0.265-2 1.27-3z" fill="#000100"/>
<path transform="translate(545,210)" d="m0 0c0.99 0.33 1.98 0.66 3 1 1.02 2.47 1.86 4.83 2.62 7.38 0.217 0.686 0.433 1.37 0.656 2.08 0.582 1.85 1.15 3.7 1.72 5.55l1 3c-0.996 0.545-0.996 0.545-2.01 1.1-7.22 4.11-12.3 7.73-15 15.9-0.482 8.32 2.41 15.4 5.75 22.9 0.91 2.1 1.82 4.21 2.73 6.31 0.436 0.999 0.872 2 1.32 3.03 1.52 3.53 2.94 7.08 4.33 10.7 0.374 0.967 0.748 1.93 1.13 2.93 0.742 2.2 0.742 2.2 0.742 4.2l-20 9c-2.83-2.83-3.6-6.29-4.88-10-2.86-8.07-6.26-15.8-9.94-23.5-6.26-13.2-11.3-26.7-16.2-40.5 2.7-2.7 5.89-3.78 9.38-5.19 0.673-0.286 1.35-0.571 2.04-0.865 2.75-1.11 5-1.99 8-1.78 2.43 1.27 2.66 3.34 3.59 5.83 0.99 0.33 1.98 0.66 3 1l0.25-2.62c1.54-6.94 5.79-10.8 11.5-14.5 1.86-1.14 1.86-1.14 5.23-2.83z" fill="#000100"/>
<path transform="translate(639,244)" d="m0 0c3.86 2.85 6.17 6.22 7.12 10.9 0.246 4.68-1.33 8.36-4.12 12.1-4.37 3.41-9 3.58-14.4 3.41-4.32-0.676-5.78-2.07-8.62-5.41-2.13-3.97-3.9-7.49-3-12 2.4-4.9 5.74-8.28 10.8-10.5 4.39-1.05 8.15-0.323 12.2 1.46z" fill="#000100"/>
<path transform="translate(837,1322)" d="m0 0c4.66 1.7 7.48 3.7 10 8 1.23 4.55 1.4 7.93-0.25 12.4-2.39 3.58-3.63 5.25-7.75 6.62-1.95 0.145-3.92 0.221-5.88 0.25-1.54 0.0387-1.54 0.0387-3.12 0.0781-3.43-0.374-5.24-1.31-8.01-3.33-2.95-3.79-3.83-7.22-4-12 2.99-8.81 9.92-12.9 19-12z" fill="#000100"/>
</svg>
